<svg xmlns="http://www.w3.org/2000/svg" width="16" height="16" viewBox="0 0 16 16" fill="none">
  <path fill-rule="evenodd" clip-rule="evenodd" d="M2.00016 9.33337C2.36835 9.33337 2.66683 9.63185 2.66683 10V12.6667C2.66683 12.8435 2.73707 13.0131 2.86209 13.1381C2.98712 13.2631 3.15669 13.3334 3.3335 13.3334H12.6668C12.8436 13.3334 13.0132 13.2631 13.1382 13.1381C13.2633 13.0131 13.3335 12.8435 13.3335 12.6667V10C13.3335 9.63185 13.632 9.33337 14.0002 9.33337C14.3684 9.33337 14.6668 9.63185 14.6668 10V12.6667C14.6668 13.1971 14.4561 13.7058 14.081 14.0809C13.706 14.456 13.1973 14.6667 12.6668 14.6667H3.3335C2.80306 14.6667 2.29436 14.456 1.91928 14.0809C1.54421 13.7058 1.3335 13.1971 1.3335 12.6667V10C1.3335 9.63185 1.63197 9.33337 2.00016 9.33337Z" fill="white"/>
  <path fill-rule="evenodd" clip-rule="evenodd" d="M4.19526 6.19526C4.45561 5.93491 4.87772 5.93491 5.13807 6.19526L8 9.05719L10.8619 6.19526C11.1223 5.93491 11.5444 5.93491 11.8047 6.19526C12.0651 6.45561 12.0651 6.87772 11.8047 7.13807L8.4714 10.4714C8.21106 10.7318 7.78894 10.7318 7.5286 10.4714L4.19526 7.13807C3.93491 6.87772 3.93491 6.45561 4.19526 6.19526Z" fill="white"/>
  <path fill-rule="evenodd" clip-rule="evenodd" d="M8.00016 1.33337C8.36835 1.33337 8.66683 1.63185 8.66683 2.00004V10C8.66683 10.3682 8.36835 10.6667 8.00016 10.6667C7.63197 10.6667 7.3335 10.3682 7.3335 10V2.00004C7.3335 1.63185 7.63197 1.33337 8.00016 1.33337Z" fill="white"/>
</svg>