<svg width="26" height="26" viewBox="0 0 26 26" fill="none" xmlns="http://www.w3.org/2000/svg" stroke='none' stroke-width="2" stroke-linecap="round" stroke-linejoin="round">
<path d="M12.4583 5.4165H6.13881C5.65994 5.4165 5.20069 5.60673 4.86209 5.94534C4.52348 6.28395 4.33325 6.7432 4.33325 7.22206V19.8609C4.33325 20.3398 4.52348 20.7991 4.86209 21.1377C5.20069 21.4763 5.65994 21.6665 6.13881 21.6665H18.7777C19.2566 21.6665 19.7158 21.4763 20.0544 21.1377C20.393 20.7991 20.5833 20.3398 20.5833 19.8609V13.5415"/>
<path d="M19.4162 3.82198C19.7825 3.45575 20.2792 3.25 20.7971 3.25C21.3151 3.25 21.8118 3.45575 22.178 3.82198C22.5443 4.18822 22.75 4.68494 22.75 5.20287C22.75 5.72081 22.5443 6.21753 22.178 6.58376L13.4324 15.3294L9.75 16.25L10.6706 12.5676L19.4162 3.82198Z"/>
</svg>
