<svg xmlns="http://www.w3.org/2000/svg" width="28" height="28" viewBox="0 0 28 28" fill="none">
  <path fill-rule="evenodd" clip-rule="evenodd" d="M13.647 2.6272C7.36363 2.6272 2.27441 7.84514 2.27441 14.2874C2.27441 19.447 5.52981 23.805 10.0504 25.35C10.619 25.452 10.8323 25.1022 10.8323 24.7962C10.8323 24.5192 10.818 23.601 10.818 22.6244C7.96069 23.1637 7.22147 21.9103 6.99402 21.2544C6.86608 20.9191 6.31167 19.8843 5.82834 19.6074C5.4303 19.3887 4.86167 18.8495 5.81412 18.8349C6.70971 18.8203 7.34941 19.6802 7.56265 20.0301C8.58618 21.7937 10.221 21.2981 10.8749 20.992C10.9744 20.2341 11.2729 19.724 11.5999 19.4325C9.06951 19.141 6.42539 18.1353 6.42539 13.6752C6.42539 12.4072 6.86608 11.3578 7.59108 10.5416C7.47736 10.2501 7.07932 9.05488 7.70481 7.45161C7.70481 7.45161 8.65726 7.14553 10.8323 8.64678C11.7421 8.38442 12.7087 8.25325 13.6754 8.25325C14.6421 8.25325 15.6087 8.38442 16.5185 8.64678C18.6935 7.13095 19.646 7.45161 19.646 7.45161C20.2715 9.05488 19.8734 10.2501 19.7597 10.5416C20.4847 11.3578 20.9254 12.3926 20.9254 13.6752C20.9254 18.1498 18.2671 19.141 15.7367 19.4325C16.1489 19.7968 16.5043 20.4965 16.5043 21.5896C16.5043 23.1492 16.4901 24.4026 16.4901 24.7962C16.4901 25.1022 16.7033 25.4666 17.272 25.35C19.5296 24.5685 21.4913 23.0808 22.8812 21.0963C24.271 19.1119 25.0188 16.7305 25.0195 14.2874C25.0195 7.84514 19.9303 2.6272 13.647 2.6272Z" fill="url(#paint0_linear_1_2360)"/>
  <defs>
    <linearGradient id="paint0_linear_1_2360" x1="7.44376" y1="7.57888" x2="24.0989" y2="24.7224" gradientUnits="userSpaceOnUse">
      <stop stop-color="white"/>
      <stop offset="0.852473" stop-color="#BAC3CF"/>
    </linearGradient>
  </defs>
</svg>