<svg xmlns="http://www.w3.org/2000/svg" width="24" height="24" viewBox="0 0 24 24" fill="none">
  <path fill-rule="evenodd" clip-rule="evenodd" d="M5.74173 3.22806C5.74173 4.74039 4.51783 5.96638 3.00807 5.96638C1.49831 5.96638 0.274414 4.74039 0.274414 3.22806C0.274414 1.71573 1.49831 0.489746 3.00807 0.489746C4.51783 0.489746 5.74173 1.71573 5.74173 3.22806ZM8.32297 23.2336V8.04148H12.8433V10.119H12.907C13.5354 8.92631 15.0722 7.66603 17.3648 7.66603C22.1399 7.66603 23.0195 10.8111 23.0195 14.9035V23.2349H18.3081V15.8459C18.3081 14.0851 18.2781 11.8186 15.858 11.8186C13.4042 11.8186 13.0319 13.7384 13.0319 15.7208V23.2336H8.32297ZM5.36567 8.04148H0.649242V23.2336H5.36567V8.04148Z" fill="url(#paint0_linear_55_20217)"/>
  <defs>
    <linearGradient id="paint0_linear_55_20217" x1="5.44375" y1="5.44144" x2="22.0989" y2="22.585" gradientUnits="userSpaceOnUse">
      <stop stop-color="var(--contacts-icon-start)"/>
      <stop offset="0.852473" stop-color="var(--contacts-icon-end)"/>
    </linearGradient>
  </defs>
</svg>