<svg width="22" height="22" viewBox="0 0 22 22" fill="none" xmlns="http://www.w3.org/2000/svg">
<path fill-rule="evenodd" clip-rule="evenodd" d="M10.5417 3.66683C8.95605 3.66683 7.43868 4.28542 6.32252 5.38129C5.20692 6.4766 4.58333 7.95855 4.58333 9.50016C4.58333 11.7504 6.08014 13.9625 7.76382 15.7074C8.58586 16.5593 9.41114 17.2574 10.032 17.7429C10.2244 17.8932 10.3964 18.0226 10.5417 18.1293C10.687 18.0226 10.859 17.8932 11.0513 17.7429C11.6722 17.2574 12.4975 16.5593 13.3195 15.7074C15.0032 13.9625 16.5 11.7504 16.5 9.50016C16.5 7.95855 15.8764 6.4766 14.7608 5.38129C13.6447 4.28542 12.1273 3.66683 10.5417 3.66683ZM10.5417 19.2502C10.0396 20.0171 10.0394 20.017 10.0392 20.0168L10.0368 20.0153L10.0314 20.0117L10.0134 19.9997C9.99812 19.9896 9.97653 19.9751 9.94901 19.9564C9.89397 19.9189 9.81518 19.8646 9.71603 19.7943C9.51782 19.6538 9.23768 19.4489 8.90285 19.1872C8.2347 18.6648 7.34123 17.9097 6.44452 16.9804C4.69069 15.1628 2.75 12.5 2.75 9.50016C2.75 7.46135 3.57507 5.50952 5.0381 4.07309C6.50056 2.63722 8.48056 1.8335 10.5417 1.8335C12.6028 1.8335 14.5828 2.63722 16.0452 4.07309C17.5083 5.50952 18.3333 7.46135 18.3333 9.50016C18.3333 12.5 16.3926 15.1628 14.6388 16.9804C13.7421 17.9097 12.8486 18.6648 12.1805 19.1872C11.8457 19.4489 11.5655 19.6538 11.3673 19.7943C11.2682 19.8646 11.1894 19.9189 11.1343 19.9564C11.1068 19.9751 11.0852 19.9896 11.07 19.9997L11.0519 20.0117L11.0466 20.0153L11.0448 20.0164C11.0446 20.0166 11.0437 20.0171 10.5417 19.2502ZM10.5417 19.2502L11.0437 20.0171C10.7388 20.2167 10.3441 20.2164 10.0392 20.0168L10.5417 19.2502Z"/>
<path fill-rule="evenodd" clip-rule="evenodd" d="M10.5417 8.24984C9.78232 8.24984 9.16671 8.86545 9.16671 9.62484C9.16671 10.3842 9.78232 10.9998 10.5417 10.9998C11.3011 10.9998 11.9167 10.3842 11.9167 9.62484C11.9167 8.86545 11.3011 8.24984 10.5417 8.24984ZM7.33337 9.62484C7.33337 7.85292 8.76979 6.4165 10.5417 6.4165C12.3136 6.4165 13.75 7.85292 13.75 9.62484C13.75 11.3968 12.3136 12.8332 10.5417 12.8332C8.76979 12.8332 7.33337 11.3968 7.33337 9.62484Z"/>
</svg>
