<svg xmlns="http://www.w3.org/2000/svg" width="95" height="66" viewBox="0 0 95 66" fill="none">
  <path d="M85.2341 62.1662C85.2331 61.6083 85.3716 61.059 85.637 60.5685C87.1411 56.2677 87.9102 51.7432 87.9118 47.1857C87.9118 24.9954 69.8957 6.9414 47.7511 6.9414C25.6066 6.9414 7.59045 24.9968 7.59045 47.1871C7.58399 51.7441 8.35263 56.2689 9.86335 60.5669C10.0194 60.8543 10.1324 61.1632 10.1986 61.4836L10.2033 61.496H10.2011C10.2997 61.9828 10.2892 62.4854 10.1704 62.9676C10.0517 63.4499 9.82756 63.8996 9.51429 64.2845C9.20101 64.6693 8.8064 64.9796 8.35893 65.193C7.91146 65.4064 7.4223 65.5175 6.92678 65.5183C6.43126 65.5192 5.94173 65.4097 5.49355 65.1978C5.04537 64.9859 4.64972 64.677 4.33516 64.2932C4.0206 63.9094 3.79499 63.4604 3.6746 62.9785C3.12571 61.5365 3.6746 62.9786 3.12571 61.5365C3.29581 61.5236 2.95396 61.5434 3.12571 61.5365C0.877244 54.4927 0.320077 47.0161 1.49957 39.7156C2.67907 32.4151 5.56189 25.497 9.91331 19.5246C14.2647 13.5521 19.9618 8.69418 26.5405 5.34624C33.1193 1.99829 40.3939 0.255003 47.772 0.258305C55.15 0.261608 62.4231 2.01141 68.9989 5.36524C75.5747 8.71907 81.2674 13.5821 85.6135 19.5585C89.9596 25.5348 92.8362 32.4555 94.0092 39.757C95.1822 47.0586 94.6184 54.5346 92.3636 61.5764C92.5285 61.5873 92.1987 61.5581 92.3636 61.5764C92.159 62.2155 92.1311 62.2155 91.8432 62.919C91.4992 63.7592 91.5398 63.8026 91.2602 64.1765C90.9807 64.5504 90.6263 64.8616 90.2197 65.0903C89.8132 65.3189 89.3635 65.4599 88.8995 65.5042C88.4355 65.5485 87.9673 65.4952 87.525 65.3476C87.0827 65.2001 86.6761 64.9615 86.3311 64.6472C85.9861 64.333 85.7105 63.95 85.5218 63.5227C85.333 63.0955 85.2354 62.6334 85.2352 62.1662H85.2341Z" fill="url(#paint0_linear_55_13836)"/>
  <defs>
    <linearGradient id="paint0_linear_55_13836" x1="-9.20794" y1="61.937" x2="85.9639" y2="80.8422" gradientUnits="userSpaceOnUse">
      <stop offset="0.00762783" stop-color="var(--track-line-start)"/>
      <stop offset="0.883335" stop-color="var(--track-line-end)" stop-opacity="0"/>
    </linearGradient>
  </defs>
</svg>