<svg xmlns="http://www.w3.org/2000/svg" width="24" height="24" viewBox="0 0 24 24" fill="none">
  <path d="M21.8822 11.9997C21.8822 17.6525 17.2997 22.235 11.6469 22.235C9.49082 22.235 7.49044 21.5683 5.84065 20.4299L2.3421 21.3045L3.25889 17.8666C2.09476 16.2053 1.41162 14.1823 1.41162 11.9997C1.41162 6.3469 5.99412 1.7644 11.6469 1.7644C17.2997 1.7644 21.8822 6.3469 21.8822 11.9997Z" fill="url(#paint0_linear_55_21337)"/>
  <path fill-rule="evenodd" clip-rule="evenodd" d="M11.647 23.3723C17.9278 23.3723 23.0195 18.2806 23.0195 11.9997C23.0195 5.71886 17.9278 0.627197 11.647 0.627197C5.36608 0.627197 0.274414 5.71886 0.274414 11.9997C0.274414 14.0394 0.811359 15.9536 1.75161 17.6088L0.274414 23.3723L6.21646 21.9944C7.83015 22.8731 9.68026 23.3723 11.647 23.3723ZM11.647 21.6227C16.9616 21.6227 21.2699 17.3143 21.2699 11.9997C21.2699 6.68515 16.9616 2.37682 11.647 2.37682C6.33237 2.37682 2.02404 6.68515 2.02404 11.9997C2.02404 14.0517 2.66631 15.9537 3.76078 17.5156L2.89885 20.7479L6.18808 19.9256C7.73916 20.9959 9.61987 21.6227 11.647 21.6227Z" fill="url(#paint1_linear_55_21337)"/>
  <path d="M8.66164 6.45573C8.37773 5.88547 7.94219 5.93596 7.5022 5.93596C6.71586 5.93596 5.48975 6.87784 5.48975 8.63079C5.48975 10.0674 6.1228 11.64 8.25598 13.9925C10.3147 16.2628 13.0196 17.4373 15.2653 17.3973C17.5109 17.3573 17.9729 15.4249 17.9729 14.7723C17.9729 14.483 17.7934 14.3387 17.6698 14.2995C16.9045 13.9322 15.4931 13.2479 15.172 13.1193C14.8508 12.9908 14.6831 13.1647 14.5789 13.2593C14.2877 13.5368 13.7104 14.3547 13.5127 14.5387C13.3151 14.7227 13.0204 14.6296 12.8978 14.56C12.4465 14.3789 11.2229 13.8347 10.2476 12.8892C9.04146 11.72 8.97067 11.3177 8.74342 10.9596C8.56162 10.6731 8.69503 10.4974 8.76159 10.4206C9.02147 10.1207 9.38031 9.65776 9.54124 9.4277C9.70216 9.19763 9.57441 8.84834 9.49775 8.63079C9.16807 7.69516 8.88877 6.91193 8.66164 6.45573Z" fill="url(#paint2_linear_55_21337)"/>
  <defs>
    <linearGradient id="paint0_linear_55_21337" x1="6.06403" y1="6.22092" x2="21.0536" y2="21.6501" gradientUnits="userSpaceOnUse">
      <stop stop-color="white"/>
      <stop offset="0.852473" stop-color="#BAC3CF"/>
    </linearGradient>
    <linearGradient id="paint1_linear_55_21337" x1="5.44376" y1="5.57888" x2="22.0989" y2="22.7224" gradientUnits="userSpaceOnUse">
      <stop stop-color="white"/>
      <stop offset="0.852473" stop-color="#BAC3CF"/>
    </linearGradient>
    <linearGradient id="paint2_linear_55_21337" x1="5.9653" y1="6.64446" x2="16.4069" y2="17.6883" gradientUnits="userSpaceOnUse">
      <stop stop-color="#5B656F"/>
      <stop offset="1" stop-color="#3F4852"/>
    </linearGradient>
  </defs>
</svg>